<svg xmlns="http://www.w3.org/2000/svg" xmlns:xlink="http://www.w3.org/1999/xlink" version="1.1" width="1000" height="1000" viewBox="0 0 1000 1000" xml:space="preserve">
<desc>Created with Fabric.js 3.5.0</desc>
<defs>
</defs>
<rect x="0" y="0" width="100%" height="100%" fill="rgba(255,255,255,0)"/>
<g transform="matrix(1 0 0 1 504.604 500.0045)" id="361813">
<g style="">
		<g transform="matrix(1.564 0 0 1.5559 188.0177 152.8686)" id="86063">
<path style="stroke: none; stroke-width: 0; stroke-dasharray: none; stroke-linecap: butt; stroke-dashoffset: 0; stroke-linejoin: miter; stroke-miterlimit: 4; is-custom-font: none; font-file-url: none; fill: rgb(255,255,255); fill-rule: nonzero; opacity: 1;" vector-effect="non-scaling-stroke" transform=" translate(-67.5, -67.5)" d="M 132.5 67.5 C 132.5 103.399 103.399 132.5 67.5 132.5 C 31.6015 132.5 2.5 103.399 2.5 67.5 C 2.5 31.6015 31.6015 2.5 67.5 2.5 C 103.399 2.5 132.5 31.6015 132.5 67.5 Z" stroke-linecap="round"/>
</g>
		<g transform="matrix(3.0036 0 0 2.1294 -41.4237 -158.4148)" id="276367">
<path style="stroke: none; stroke-width: 0; stroke-dasharray: none; stroke-linecap: butt; stroke-dashoffset: 0; stroke-linejoin: miter; stroke-miterlimit: 4; is-custom-font: none; font-file-url: none; fill: rgb(255,255,255); fill-rule: nonzero; opacity: 1;" vector-effect="non-scaling-stroke" transform=" translate(-78.4998, -78.5)" d="M 78.5 0 C 52.9419 0 32.1166 35.2271 32.1166 78.5 C 32.1166 121.773 52.9419 157 78.5 157 C 104.058 157 124.883 121.773 124.883 78.5 C 124.883 35.2271 104.058 0 78.5 0 Z" stroke-linecap="round"/>
</g>
		<g transform="matrix(1.8425 0 0 1.8425 -41.5716 -156.4221)" id="Capa_1">
<path style="stroke: none; stroke-width: 1; stroke-dasharray: none; stroke-linecap: butt; stroke-dashoffset: 0; stroke-linejoin: miter; stroke-miterlimit: 4; is-custom-font: none; font-file-url: none; fill: rgb(28,139,187); fill-rule: nonzero; opacity: 1;" vector-effect="non-scaling-stroke" transform=" translate(-160.9375, -98.6015)" d="M 160.937 197.203 c 24.125 0 80.846 -29.033 80.846 -98.603 c 0 -9.705 -0.236 -19.081 -1.037 -27.94 c -1.313 -17.427 -4.883 -32.872 -13.768 -44.71 C 215.578 9.838 195.629 0 160.937 0 c -34.68 0 -54.628 9.833 -66.029 25.937 C 86.012 37.778 82.44 53.231 81.127 70.669 c -0.799 8.856 -1.035 18.229 -1.035 27.932 C 80.092 168.17 136.812 197.203 160.937 197.203 z M 187.328 36.123 c -2.355 5.951 -3.535 8.926 -5.891 14.877 c -15.209 -4.297 -25.791 -4.297 -41 0 c -2.355 -5.951 -3.533 -8.926 -5.891 -14.877 C 153.566 30.365 168.308 30.365 187.328 36.123 z M 92.119 83.517 c 0.932 2.037 4.889 9.869 11.014 10.604 c 7.041 0.844 18.729 -24.936 57.805 -24.998 c 39.076 0.063 50.764 25.842 57.805 24.998 c 6.125 -0.735 10.082 -8.567 11.014 -10.604 c 0.189 4.992 0.259 10.046 0.259 15.084 c 0 34.006 -15.015 55.076 -27.612 66.763 c -15.871 14.726 -33.492 20.071 -41.465 20.071 c -7.973 0 -25.594 -5.345 -41.465 -20.071 c -12.598 -11.687 -27.612 -32.757 -27.612 -66.763 C 91.86 93.562 91.93 88.509 92.119 83.517 z" stroke-linecap="round"/>
</g>
		<g transform="matrix(1.8425 0 0 1.8425 -106.1821 157.2654)" id="Capa_1">
<path style="stroke: none; stroke-width: 1; stroke-dasharray: none; stroke-linecap: butt; stroke-dashoffset: 0; stroke-linejoin: miter; stroke-miterlimit: 4; is-custom-font: none; font-file-url: none; fill: rgb(28,139,187); fill-rule: nonzero; opacity: 1;" vector-effect="non-scaling-stroke" transform=" translate(-125.8697, -268.8559)" d="M 232.705 211.768 c 2.605 -2.606 5.371 -4.994 8.26 -7.181 c -11.223 -6.117 -22.109 -11.933 -29.153 -15.697 l -0.331 -0.177 c -1.982 -1.059 -4.403 -0.847 -6.169 0.541 c -9.085 7.132 -19.035 11.938 -29.574 14.283 c -1.861 0.414 -3.391 1.738 -4.066 3.521 l -10.734 28.291 l -10.734 -28.291 c -0.675 -1.783 -2.204 -3.106 -4.066 -3.521 c -10.539 -2.346 -20.489 -7.152 -29.573 -14.283 c -1.769 -1.388 -4.188 -1.601 -6.17 -0.541 c -17.138 9.158 -58.25 31.302 -69.829 39.106 c -19.621 13.219 -28.199 61.053 -29.72 70.508 c -0.15 0.938 -0.064 1.898 0.253 2.793 c 0.703 1.982 18.709 48.548 149.84 48.548 c 5.933 0 11.627 -0.098 17.105 -0.28 c 0.481 -6.064 3.029 -11.993 7.657 -16.622 l 31.512 -31.511 C 203.113 271.581 208.833 235.64 232.705 211.768 z" stroke-linecap="round"/>
</g>
		<g transform="matrix(1.8425 0 0 1.8425 164.1417 183.9853)" id="Capa_1">
<path style="stroke: none; stroke-width: 1; stroke-dasharray: none; stroke-linecap: butt; stroke-dashoffset: 0; stroke-linejoin: miter; stroke-miterlimit: 4; is-custom-font: none; font-file-url: none; fill: rgb(28,139,187); fill-rule: nonzero; opacity: 1;" vector-effect="non-scaling-stroke" transform=" translate(-272.5886, -283.358)" d="M 336.396 219.546 c -12.79 -12.79 -29.821 -19.834 -47.957 -19.834 c -18.135 0 -35.166 7.044 -47.955 19.834 c -21.512 21.511 -26.052 54.982 -11.04 81.396 l 1.317 2.319 l -37.284 37.284 c -6.042 6.043 -6.041 15.876 0.002 21.92 c 2.927 2.927 6.819 4.539 10.958 4.539 c 4.142 0 8.033 -1.612 10.96 -4.54 l 37.285 -37.283 l 2.317 1.315 c 10.126 5.748 21.698 8.787 33.464 8.787 c 18.127 0 35.149 -7.04 47.933 -19.824 c 12.791 -12.79 19.835 -29.822 19.835 -47.957 C 356.231 249.367 349.187 232.336 336.396 219.546 z M 319.779 298.842 c -8.357 8.358 -19.488 12.962 -31.339 12.962 c -11.851 0 -22.982 -4.603 -31.341 -12.962 c -17.281 -17.281 -17.281 -45.399 0 -62.68 c 8.359 -8.359 19.49 -12.962 31.341 -12.962 c 11.851 0 22.981 4.604 31.339 12.963 c 8.359 8.358 12.963 19.488 12.963 31.339 S 328.138 290.483 319.779 298.842 z" stroke-linecap="round"/>
</g>
</g>
</g>
</svg>